<svg id="Layer_1" data-name="Layer 1" xmlns="http://www.w3.org/2000/svg" viewBox="0 0 455.5 455.5"><defs><style>.cls-1{font-size:67.63px;font-family:ShorelinesScriptBold, Shorelines Script Bold;}</style></defs><title>thanks</title><path fill="white" d="M91.8,406a194.26,194.26,0,0,1-17.61-24.41,2.32,2.32,0,0,0,1.3-.79c8.17-10.1,12-22.56,9.7-35.46a2.64,2.64,0,0,0-4.39-1.16,53.16,53.16,0,0,0-8.92,14.23,2.39,2.39,0,0,0-.38.44,14.76,14.76,0,0,0-1.75,6.08,42.11,42.11,0,0,0-1.09,7,195.55,195.55,0,0,1-11.38-25.11,46.52,46.52,0,0,0,12.39-24.95c.34-2.25-1.75-4.32-4-3.06A28.25,28.25,0,0,0,52.93,333.6,197.4,197.4,0,0,1,48,312.25a51.48,51.48,0,0,0,13.49-10.61c.87-.46,1.73-1,2.62-1.4a2.44,2.44,0,0,0,1.18-3.4,49.69,49.69,0,0,0,3.38-5.42c.93-1.75-.67-4.62-2.87-3.73-6,2.43-11.44,5.55-15.78,10.47a45.35,45.35,0,0,0-3.43,4.42c-.6-4.92-1-9.87-1.27-14.85-.17-3.69-.22-7.37-.2-11.06,12.67.24,24.31-9.55,25.51-22.64.17-1.89-1.81-2.76-3.33-2.54-8.53,1.25-16.2,4.79-21.62,10.79a235.09,235.09,0,0,1,3.66-27.53A26.09,26.09,0,0,0,75.91,212a2.73,2.73,0,0,0-2.71-2.71,31.08,31.08,0,0,0-19.87,8.33,234.92,234.92,0,0,1,8.49-24.84A15.68,15.68,0,0,0,74,194.93c8-1.8,13.15-9,16.9-15.76a2.64,2.64,0,0,0-1.56-3.84,31.24,31.24,0,0,0-21.46,3c3.24-7.36,6.59-14.69,9.89-22.17a9.19,9.19,0,0,0,2.51-.58C89.54,152,91,138,88.62,129.82a2.71,2.71,0,0,0-3.94-1.6,33.41,33.41,0,0,0-15.76,27,1.82,1.82,0,0,0,1.87,1.8,188.34,188.34,0,0,0-9.72,18.23,30.14,30.14,0,0,0-6-19.13,2.76,2.76,0,0,0-4.69,0,28.5,28.5,0,0,0-4.54,19c.5,4.27,2.09,11.63,6.76,13A3.05,3.05,0,0,0,54.81,190c-2.37,6.24-4.47,12.63-6.31,19.11a60.61,60.61,0,0,0-8.7-14.56c-1.17-1.49-3.5-.78-4.37.56a25.81,25.81,0,0,0,3.72,32.13c.06.65.11,1.3.17,1.94a2.87,2.87,0,0,0,2,2.62,2.93,2.93,0,0,0,1.61,1.76,252,252,0,0,0-3.76,37,2.88,2.88,0,0,0-.82.66,55.52,55.52,0,0,0-17.17-26,2.8,2.8,0,0,0-4.71,2c-1,12,5.12,24.56,16.2,29.78,1,.87,1.95,1.71,3,2.51a2.36,2.36,0,0,0,3.36-.57c0,4.36.17,8.68.46,12.94s.73,8.43,1.26,12.63a61.87,61.87,0,0,0-17.16-15.61c-1.66-1-4.29.27-4.1,2.35,1,11.42,9,23.4,21,25.37h0q1.22,1,2.49,1.94a199.87,199.87,0,0,0,7.5,27.41,2.83,2.83,0,0,0-.16,1.41A59.31,59.31,0,0,0,41,340.17a101.21,101.21,0,0,0-19.25-10.5c-2.35-1-4.15,2.13-3.1,4A45.27,45.27,0,0,0,32.2,349a42.47,42.47,0,0,0,8.6,4.67c3.76,1.52,5.81,1.21,9.26,1.23.34.32.69.62,1,1a2.55,2.55,0,0,0,3.33.37c2.19,5.25,4.63,10.38,7.29,15.4l-1.85-.37a51.21,51.21,0,0,0-19.33.07c-1.91.36-2.43,2.65-1.69,4.14,5.35,10.77,20.16,18.82,31.62,12.43a1.4,1.4,0,0,0,.59-.67,166.43,166.43,0,0,0,17.56,22C90.63,411.39,93.67,408.23,91.8,406ZM64.75,256.82a18.19,18.19,0,0,1-1.33,3.3,4,4,0,0,0-.91-2.94A22,22,0,0,1,64.75,256.82Zm16.14-73.14.89-.24a19.65,19.65,0,0,1-5,4.38,3.33,3.33,0,0,0-.47-.78,1.57,1.57,0,0,0-.27-.24l0-.05c-.06-.07-.12-.11-.18-.17A36.19,36.19,0,0,0,80.89,183.67Zm3.27-48.54a20.5,20.5,0,0,1,.07,2.8,3,3,0,0,0-1.6-1.45C83.14,136,83.63,135.56,84.17,135.14Zm-6,14.69a2.78,2.78,0,0,0,.87-.91l4.87-8.22a18.62,18.62,0,0,1-2.61,6.64A7.73,7.73,0,0,1,79,149.92C77.24,150.94,77.74,150.44,78.17,149.82ZM50.88,174.28a23.42,23.42,0,0,1,.49-6.74c.05,3.26.15,6.52.51,9.74a2.63,2.63,0,0,0,.1.34l.05,1.23A17,17,0,0,1,50.88,174.28Zm-6.62,47.19q-.5-5.53-1-11.05C44.79,214.13,45.43,218,44.25,221.46Zm-8,124.23A37.78,37.78,0,0,1,31,341.24c4.8,3.53,9.89,6.3,14.62,9.84A75.67,75.67,0,0,1,36.24,345.69Zm30,34.84a2.29,2.29,0,0,0-1.43-.79l-2.83-.44-1.43-.56a2.19,2.19,0,0,0,1.07-1.19c.52.15,1.06.25,1.58.42A7.4,7.4,0,0,1,65.87,379l.33.55a1.63,1.63,0,0,1,.06.71A1.46,1.46,0,0,1,66.2,380.53Z" transform="translate(-16.35 -38.35)"/><path fill="white" d="M399.61,409.25a166.42,166.42,0,0,0,17.56-22,1.4,1.4,0,0,0,.59.67c11.45,6.39,26.26-1.66,31.62-12.43.74-1.5.22-3.79-1.69-4.14a51.21,51.21,0,0,0-19.33-.07l-1.85.37c2.66-5,5.1-10.15,7.29-15.4a2.55,2.55,0,0,0,3.33-.37c.33-.34.68-.64,1-1,3.45,0,5.5.29,9.26-1.23A42.46,42.46,0,0,0,456,349a45.27,45.27,0,0,0,13.56-15.27c1.05-1.9-.75-5-3.1-4a101.2,101.2,0,0,0-19.25,10.5,59.33,59.33,0,0,0-9.37,7.18,2.83,2.83,0,0,0-.16-1.41,199.84,199.84,0,0,0,7.5-27.41q1.27-.94,2.49-1.94h0c12-2,20-14,21-25.37.18-2.08-2.45-3.37-4.1-2.35a61.88,61.88,0,0,0-17.16,15.61c.53-4.2,1-8.41,1.26-12.63s.42-8.58.46-12.94a2.36,2.36,0,0,0,3.36.57c1.06-.8,2.05-1.64,3-2.51,11.08-5.23,17.23-17.83,16.2-29.78a2.8,2.8,0,0,0-4.71-2,55.52,55.52,0,0,0-17.17,26,2.88,2.88,0,0,0-.82-.66,252,252,0,0,0-3.76-37,2.94,2.94,0,0,0,1.61-1.76,2.87,2.87,0,0,0,2-2.62c.06-.65.11-1.3.17-1.94a25.81,25.81,0,0,0,3.72-32.13c-.87-1.34-3.21-2.06-4.37-.56a60.61,60.61,0,0,0-8.7,14.56c-1.84-6.48-3.94-12.87-6.31-19.11a3.05,3.05,0,0,0,2.22-1.81c4.67-1.41,6.26-8.77,6.76-13a28.5,28.5,0,0,0-4.54-19,2.76,2.76,0,0,0-4.69,0,30.14,30.14,0,0,0-6,19.13A188.29,188.29,0,0,0,417.41,157a1.82,1.82,0,0,0,1.87-1.8,33.4,33.4,0,0,0-15.76-27,2.71,2.71,0,0,0-3.94,1.6c-2.42,8.16-.93,22.16,8.34,25.76a9.19,9.19,0,0,0,2.51.58c3.3,7.48,6.65,14.81,9.89,22.17a31.24,31.24,0,0,0-21.46-3,2.64,2.64,0,0,0-1.56,3.84c3.75,6.79,8.85,14,16.9,15.76a15.68,15.68,0,0,0,12.2-2.18,234.86,234.86,0,0,1,8.49,24.84A31.08,31.08,0,0,0,415,209.27a2.73,2.73,0,0,0-2.71,2.71,26.09,26.09,0,0,0,26.57,22.79,235.15,235.15,0,0,1,3.66,27.53c-5.42-6-13.09-9.54-21.62-10.79-1.52-.22-3.51.65-3.33,2.54,1.2,13.09,12.84,22.88,25.51,22.64,0,3.68,0,7.37-.2,11.06-.23,5-.67,9.93-1.27,14.85a45.35,45.35,0,0,0-3.43-4.42c-4.34-4.92-9.76-8-15.78-10.47-2.2-.89-3.8,2-2.87,3.73a49.73,49.73,0,0,0,3.38,5.42,2.44,2.44,0,0,0,1.18,3.4c.9.43,1.75.93,2.62,1.4a51.48,51.48,0,0,0,13.49,10.61,197.4,197.4,0,0,1-4.94,21.34,28.25,28.25,0,0,0-12.77-14.74c-2.22-1.26-4.32.81-4,3.06a46.53,46.53,0,0,0,12.39,24.95A195.52,195.52,0,0,1,419.53,372a42.11,42.11,0,0,0-1.09-7,14.76,14.76,0,0,0-1.75-6.08,2.41,2.41,0,0,0-.38-.44,53.16,53.16,0,0,0-8.92-14.23,2.64,2.64,0,0,0-4.39,1.16c-2.32,12.9,1.54,25.36,9.7,35.46a2.32,2.32,0,0,0,1.3.79A194.26,194.26,0,0,1,396.39,406C394.52,408.23,397.57,411.39,399.61,409.25Zm26.08-152.07a4,4,0,0,0-.91,2.94,18.19,18.19,0,0,1-1.33-3.3A22,22,0,0,1,425.69,257.18Zm-13.33-70.61c-.06.06-.12.1-.18.17l0,.05a1.59,1.59,0,0,0-.27.24,3.34,3.34,0,0,0-.47.78,19.65,19.65,0,0,1-5-4.38l.89.24A36.2,36.2,0,0,0,412.36,186.57Zm-6.8-50.09a3,3,0,0,0-1.6,1.45,20.5,20.5,0,0,1,.07-2.8C404.56,135.56,405.06,136,405.56,136.48Zm3.62,13.44a7.73,7.73,0,0,1-2.28-2.59,18.62,18.62,0,0,1-2.61-6.64l4.87,8.22a2.78,2.78,0,0,0,.87.91C410.46,150.44,411,150.94,409.18,149.92Zm27,28.92.05-1.23a2.66,2.66,0,0,0,.1-.34c.36-3.21.46-6.48.51-9.74a23.42,23.42,0,0,1,.48,6.74A16.94,16.94,0,0,1,436.17,178.84Zm8.78,31.57q-.51,5.53-1,11.05C442.76,218,443.41,214.13,444.95,210.41ZM442.6,351.09c4.73-3.54,9.82-6.31,14.62-9.84a37.78,37.78,0,0,1-5.26,4.45A75.67,75.67,0,0,1,442.6,351.09Zm-20.67,29.22a1.63,1.63,0,0,1,.06-.71l.33-.55A7.4,7.4,0,0,1,425,378c.52-.17,1.05-.27,1.58-.42a2.18,2.18,0,0,0,1.07,1.19l-1.43.56-2.83.44a2.29,2.29,0,0,0-1.43.79A1.46,1.46,0,0,1,421.93,380.31Z" transform="translate(-16.35 -38.35)"/><path fill="white" d="M100.95,421.6a166.4,166.4,0,0,0,22,17.56,1.4,1.4,0,0,0-.67.59C115.92,451.2,124,466,134.74,471.37c1.5.74,3.79.22,4.14-1.69a51.21,51.21,0,0,0,.07-19.33c-.11-.59-.24-1.21-.37-1.85,5,2.66,10.15,5.1,15.4,7.29a2.55,2.55,0,0,0,.37,3.33c.34.33.64.68,1,1,0,3.45-.29,5.5,1.23,9.26a42.45,42.45,0,0,0,4.67,8.6,45.27,45.27,0,0,0,15.27,13.56c1.9,1.05,5-.75,4-3.1A101.21,101.21,0,0,0,170,469.21a59.3,59.3,0,0,0-7.18-9.37,2.83,2.83,0,0,0,1.41-.16,199.83,199.83,0,0,0,27.41,7.5q.94,1.27,1.94,2.49s0,0,0,0c2,12,14,20,25.37,21,2.08.18,3.37-2.45,2.35-4.1a61.88,61.88,0,0,0-15.61-17.16c4.2.53,8.41,1,12.63,1.26s8.58.42,12.94.46a2.36,2.36,0,0,0-.57,3.36c.8,1.06,1.64,2.05,2.51,3,5.23,11.08,17.83,17.23,29.78,16.2a2.8,2.8,0,0,0,2-4.71,55.52,55.52,0,0,0-26-17.17,2.88,2.88,0,0,0,.66-.82,252,252,0,0,0,37-3.76,2.94,2.94,0,0,0,1.76,1.61,2.87,2.87,0,0,0,2.62,2l1.94.17a25.81,25.81,0,0,0,32.13,3.72c1.34-.87,2.06-3.21.56-4.37a60.61,60.61,0,0,0-14.56-8.7c6.48-1.84,12.87-3.94,19.11-6.31a3.05,3.05,0,0,0,1.81,2.22c1.41,4.67,8.77,6.26,13,6.76a28.5,28.5,0,0,0,19-4.54,2.76,2.76,0,0,0,0-4.69,30.14,30.14,0,0,0-19.13-6,188.34,188.34,0,0,0,18.23-9.72,1.82,1.82,0,0,0,1.8,1.86,33.4,33.4,0,0,0,27-15.76,2.71,2.71,0,0,0-1.6-3.94c-8.16-2.42-22.16-.93-25.76,8.34a9.19,9.19,0,0,0-.57,2.51c-7.48,3.3-14.81,6.65-22.17,9.89a31.24,31.24,0,0,0,3-21.46,2.64,2.64,0,0,0-3.84-1.56c-6.79,3.75-14,8.85-15.76,16.9a15.68,15.68,0,0,0,2.18,12.2,234.78,234.78,0,0,1-24.84,8.49A31.08,31.08,0,0,0,300.93,437a2.73,2.73,0,0,0-2.71-2.71,26.09,26.09,0,0,0-22.79,26.57,235.15,235.15,0,0,1-27.53,3.66c6-5.42,9.54-13.09,10.79-21.62.22-1.52-.65-3.51-2.54-3.33-13.09,1.2-22.88,12.84-22.64,25.51-3.69,0-7.37,0-11.06-.2-5-.23-9.93-.67-14.85-1.27a45.28,45.28,0,0,0,4.42-3.43c4.92-4.34,8-9.76,10.47-15.78.89-2.2-2-3.8-3.73-2.87a49.76,49.76,0,0,0-5.42,3.38,2.44,2.44,0,0,0-3.4,1.18c-.43.9-.93,1.75-1.4,2.62a51.47,51.47,0,0,0-10.61,13.49,197.48,197.48,0,0,1-21.34-4.94,28.25,28.25,0,0,0,14.74-12.77c1.26-2.22-.81-4.32-3.06-4a46.53,46.53,0,0,0-24.95,12.4,195.52,195.52,0,0,1-25.11-11.38,42.09,42.09,0,0,0,7-1.09,14.76,14.76,0,0,0,6.08-1.75,2.4,2.4,0,0,0,.44-.38A53.16,53.16,0,0,0,166,429.39a2.64,2.64,0,0,0-1.16-4.39c-12.9-2.32-25.36,1.54-35.46,9.7a2.32,2.32,0,0,0-.79,1.3,194.32,194.32,0,0,1-24.41-17.61C102,416.52,98.8,419.56,100.95,421.6ZM253,447.69a4,4,0,0,0-2.94-.91,18.18,18.18,0,0,1,3.3-1.33A22,22,0,0,1,253,447.69Zm70.61-13.33c-.06-.06-.1-.12-.17-.18l-.05,0a1.56,1.56,0,0,0-.24-.27,3.33,3.33,0,0,0-.78-.47,19.64,19.64,0,0,1,4.38-5l-.24.89A36.2,36.2,0,0,0,323.62,434.35Zm50.09-6.8a3,3,0,0,0-1.45-1.6,20.49,20.49,0,0,1,2.8.07C374.63,426.56,374.17,427.06,373.71,427.56Zm-13.44,3.62a7.73,7.73,0,0,1,2.59-2.28,18.62,18.62,0,0,1,6.64-2.61l-8.23,4.87a2.79,2.79,0,0,0-.91.87C359.75,432.46,359.25,433,360.28,431.18Zm-28.92,27,1.23.05a2.68,2.68,0,0,0,.34.1c3.22.36,6.48.46,9.74.51a23.41,23.41,0,0,1-6.74.48A16.94,16.94,0,0,1,331.35,458.17Zm-31.57,8.78-11.05-1C292.24,464.76,296.07,465.41,299.78,466.94Zm-140.67-2.35c3.54,4.73,6.31,9.82,9.84,14.62A37.81,37.81,0,0,1,164.5,474,75.67,75.67,0,0,1,159.11,464.59Zm-29.22-20.67a1.63,1.63,0,0,1,.71.06l.55.33a7.39,7.39,0,0,1,1.08,2.72c.17.52.27,1.05.42,1.58a2.18,2.18,0,0,0-1.19,1.07c-.18-.48-.37-1-.56-1.43l-.44-2.83a2.29,2.29,0,0,0-.79-1.43A1.49,1.49,0,0,1,129.88,443.92Z" transform="translate(-16.35 -38.35)"/><path  fill="white" d="M104.16,113.8a194.29,194.29,0,0,1,24.41-17.61,2.32,2.32,0,0,0,.79,1.3c10.1,8.17,22.56,12,35.46,9.7A2.64,2.64,0,0,0,166,102.8a53.16,53.16,0,0,0-14.23-8.92,2.4,2.4,0,0,0-.44-.38,14.76,14.76,0,0,0-6.08-1.75,42.11,42.11,0,0,0-7-1.09,195.55,195.55,0,0,1,25.11-11.38,46.52,46.52,0,0,0,24.95,12.39c2.25.34,4.32-1.75,3.06-4A28.25,28.25,0,0,0,176.6,74.92,197.48,197.48,0,0,1,197.94,70a51.47,51.47,0,0,0,10.61,13.49c.46.87,1,1.73,1.4,2.62a2.44,2.44,0,0,0,3.4,1.18,49.71,49.71,0,0,0,5.42,3.38c1.75.93,4.62-.67,3.73-2.87-2.43-6-5.55-11.44-10.47-15.78a45.32,45.32,0,0,0-4.42-3.43c4.92-.6,9.87-1,14.85-1.27,3.68-.17,7.37-.22,11.06-.2-.24,12.67,9.55,24.31,22.64,25.51,1.89.17,2.76-1.81,2.54-3.33-1.25-8.53-4.79-16.2-10.79-21.62a235.09,235.09,0,0,1,27.53,3.66A26.09,26.09,0,0,0,298.21,97.9a2.73,2.73,0,0,0,2.71-2.71,31.08,31.08,0,0,0-8.33-19.87,234.84,234.84,0,0,1,24.84,8.49A15.68,15.68,0,0,0,315.26,96c1.8,8,9,13.15,15.76,16.9a2.64,2.64,0,0,0,3.84-1.56,31.24,31.24,0,0,0-3-21.46c7.36,3.24,14.69,6.59,22.17,9.89a9.19,9.19,0,0,0,.57,2.51c3.6,9.27,17.6,10.76,25.76,8.34a2.71,2.71,0,0,0,1.6-3.94,33.4,33.4,0,0,0-27-15.76,1.82,1.82,0,0,0-1.8,1.86,188.34,188.34,0,0,0-18.23-9.72,30.14,30.14,0,0,0,19.13-6,2.76,2.76,0,0,0,0-4.69,28.5,28.5,0,0,0-19-4.54c-4.27.5-11.63,2.09-13,6.76a3.05,3.05,0,0,0-1.81,2.22c-6.24-2.37-12.63-4.47-19.11-6.31a60.6,60.6,0,0,0,14.56-8.7c1.49-1.17.78-3.5-.56-4.37a25.81,25.81,0,0,0-32.13,3.72L281,61.3a2.87,2.87,0,0,0-2.62,2,2.93,2.93,0,0,0-1.76,1.61,252,252,0,0,0-37-3.76,2.88,2.88,0,0,0-.66-.82,55.52,55.52,0,0,0,26-17.17,2.8,2.8,0,0,0-2-4.71c-12-1-24.56,5.12-29.78,16.2-.87,1-1.71,1.95-2.51,3a2.36,2.36,0,0,0,.57,3.36c-4.36,0-8.68.17-12.94.46s-8.43.73-12.63,1.26a61.88,61.88,0,0,0,15.61-17.16c1-1.66-.27-4.29-2.35-4.1-11.42,1-23.4,9-25.37,21,0,0,0,0,0,0q-1,1.22-1.94,2.49a199.86,199.86,0,0,0-27.41,7.5,2.83,2.83,0,0,0-1.41-.16A59.3,59.3,0,0,0,170,63a101.2,101.2,0,0,0,10.5-19.25c1-2.35-2.13-4.15-4-3.1a45.28,45.28,0,0,0-15.27,13.56,42.45,42.45,0,0,0-4.67,8.6c-1.52,3.76-1.21,5.81-1.23,9.26-.32.34-.62.69-1,1A2.55,2.55,0,0,0,154,76.4c-5.25,2.19-10.38,4.63-15.4,7.29.14-.64.26-1.26.37-1.85a51.21,51.21,0,0,0-.07-19.33c-.36-1.91-2.65-2.43-4.14-1.69C124,66.18,115.92,81,122.32,92.44A1.4,1.4,0,0,0,123,93a166.42,166.42,0,0,0-22,17.56C98.8,112.63,102,115.67,104.16,113.8ZM253.38,86.75a18.2,18.2,0,0,1-3.3-1.33A4,4,0,0,0,253,84.5,22,22,0,0,1,253.38,86.75Zm73.14,16.14.24.89a19.64,19.64,0,0,1-4.38-5,3.33,3.33,0,0,0,.78-.47,1.56,1.56,0,0,0,.24-.27l.05,0c.07-.06.11-.12.17-.18A36.18,36.18,0,0,0,326.52,102.89Zm48.54,3.27a20.49,20.49,0,0,1-2.8.07,3,3,0,0,0,1.45-1.6C374.17,105.13,374.63,105.63,375.06,106.16Zm-14.69-6a2.79,2.79,0,0,0,.91.87l8.23,4.87a18.62,18.62,0,0,1-6.64-2.61,7.73,7.73,0,0,1-2.59-2.28C359.25,99.24,359.75,99.73,360.37,100.17ZM335.92,72.88a23.42,23.42,0,0,1,6.74.49c-3.26.05-6.52.15-9.74.51a2.72,2.72,0,0,0-.34.1l-1.23.05A17,17,0,0,1,335.92,72.88Zm-47.19-6.62,11.05-1C296.07,66.78,292.24,67.43,288.73,66.25Zm-124.23-8A37.8,37.8,0,0,1,169,53c-3.53,4.8-6.3,9.89-9.84,14.62A75.67,75.67,0,0,1,164.5,58.23Zm-34.84,30a2.29,2.29,0,0,0,.79-1.43l.44-2.83c.19-.48.38-1,.56-1.43a2.18,2.18,0,0,0,1.19,1.07c-.15.52-.25,1.06-.42,1.58a7.39,7.39,0,0,1-1.08,2.72l-.55.33a1.63,1.63,0,0,1-.71.06A1.46,1.46,0,0,1,129.66,88.19Z" transform="translate(-16.35 -38.35)"/><text fill="white" class="cls-1" transform="translate(119.89 211.66)">Thank<tspan x="39.17" y="81.16">You </tspan></text></svg>